<svg width="481" height="361" viewBox="0 0 481 361" fill="none" xmlns="http://www.w3.org/2000/svg">
<g opacity="0.1">
<mask id="mask0_1_470" style="mask-type:alpha" maskUnits="userSpaceOnUse" x="0" y="0" width="481" height="361">
<rect x="480.5" y="0.5" width="360" height="480" transform="rotate(90 480.5 0.5)" fill="url(#paint0_linear_1_470)" stroke="#6246E5"/>
</mask>
<g mask="url(#mask0_1_470)">
<path d="M236.998 453.92C167.519 453.92 111.196 397.634 111.196 328.202C111.196 258.77 167.519 202.484 236.998 202.484C306.477 202.484 362.8 258.77 362.8 328.202C362.8 397.634 306.477 453.92 236.998 453.92Z" stroke="#6246E5"/>
<path d="M250.293 458.902C172.554 458.902 109.534 395.924 109.534 318.237C109.534 240.551 172.554 177.573 250.293 177.573C328.032 177.573 391.052 240.551 391.052 318.237C391.052 395.924 328.032 458.902 250.293 458.902Z" stroke="#6246E5"/>
<path d="M261.095 463.885C176.013 463.885 107.041 394.958 107.041 309.934C107.041 224.91 176.013 155.983 261.095 155.983C346.177 155.983 415.149 224.91 415.149 309.934C415.149 394.958 346.177 463.885 261.095 463.885Z" stroke="#6246E5"/>
<path d="M276.883 467.206C185.377 467.206 111.196 393.075 111.196 301.63C111.196 210.185 185.377 136.054 276.883 136.054C368.39 136.054 442.57 210.185 442.57 301.63C442.57 393.075 368.39 467.206 276.883 467.206Z" stroke="#6246E5"/>
<path d="M292.255 470.528C194.553 470.528 115.351 391.378 115.351 293.742C115.351 196.105 194.553 116.955 292.255 116.955C389.957 116.955 469.16 196.106 469.16 293.742C469.16 391.378 389.957 470.528 292.255 470.528Z" stroke="#6246E5"/>
<path d="M309.705 474.68C202.366 474.68 115.351 387.722 115.351 280.456C115.351 173.189 202.366 86.2314 309.705 86.2314C417.044 86.2314 504.059 173.189 504.059 280.456C504.059 387.722 417.044 474.68 309.705 474.68Z" stroke="#6246E5"/>
</g>
</g>
<defs>
<linearGradient id="paint0_linear_1_470" x1="737.035" y1="13.495" x2="487.895" y2="484.646" gradientUnits="userSpaceOnUse">
<stop stop-color="#747DEF"/>
<stop offset="1" stop-color="#5E3BE1"/>
</linearGradient>
</defs>
</svg>
